<?xml version="1.0" encoding="UTF-8" standalone="no"?>
<svg xmlns="http://www.w3.org/2000/svg" width="1200" height="630" viewBox="0 0 1200 630">
  <!-- Background -->
  <rect width="1200" height="630" fill="#121212" />
  
  <!-- Retro style grid -->
  <g opacity="0.15">
    <path d="M0 30 L1200 30" stroke="#32a352" stroke-width="1" />
    <path d="M0 60 L1200 60" stroke="#32a352" stroke-width="1" />
    <path d="M0 90 L1200 90" stroke="#32a352" stroke-width="1" />
    <path d="M0 120 L1200 120" stroke="#32a352" stroke-width="1" />
    <path d="M0 150 L1200 150" stroke="#32a352" stroke-width="1" />
    <path d="M0 180 L1200 180" stroke="#32a352" stroke-width="1" />
    <path d="M0 210 L1200 210" stroke="#32a352" stroke-width="1" />
    <path d="M0 240 L1200 240" stroke="#32a352" stroke-width="1" />
    <path d="M0 270 L1200 270" stroke="#32a352" stroke-width="1" />
    <path d="M0 300 L1200 300" stroke="#32a352" stroke-width="1" />
    <path d="M0 330 L1200 330" stroke="#32a352" stroke-width="1" />
    <path d="M0 360 L1200 360" stroke="#32a352" stroke-width="1" />
    <path d="M0 390 L1200 390" stroke="#32a352" stroke-width="1" />
    <path d="M0 420 L1200 420" stroke="#32a352" stroke-width="1" />
    <path d="M0 450 L1200 450" stroke="#32a352" stroke-width="1" />
    <path d="M0 480 L1200 480" stroke="#32a352" stroke-width="1" />
    <path d="M0 510 L1200 510" stroke="#32a352" stroke-width="1" />
    <path d="M0 540 L1200 540" stroke="#32a352" stroke-width="1" />
    <path d="M0 570 L1200 570" stroke="#32a352" stroke-width="1" />
    <path d="M0 600 L1200 600" stroke="#32a352" stroke-width="1" />
    
    <path d="M30 0 L30 630" stroke="#32a352" stroke-width="1" />
    <path d="M60 0 L60 630" stroke="#32a352" stroke-width="1" />
    <path d="M90 0 L90 630" stroke="#32a352" stroke-width="1" />
    <path d="M120 0 L120 630" stroke="#32a352" stroke-width="1" />
    <path d="M150 0 L150 630" stroke="#32a352" stroke-width="1" />
    <path d="M180 0 L180 630" stroke="#32a352" stroke-width="1" />
    <path d="M210 0 L210 630" stroke="#32a352" stroke-width="1" />
    <path d="M240 0 L240 630" stroke="#32a352" stroke-width="1" />
    <path d="M270 0 L270 630" stroke="#32a352" stroke-width="1" />
    <path d="M300 0 L300 630" stroke="#32a352" stroke-width="1" />
    <path d="M330 0 L330 630" stroke="#32a352" stroke-width="1" />
    <path d="M360 0 L360 630" stroke="#32a352" stroke-width="1" />
    <path d="M390 0 L390 630" stroke="#32a352" stroke-width="1" />
    <path d="M420 0 L420 630" stroke="#32a352" stroke-width="1" />
    <path d="M450 0 L450 630" stroke="#32a352" stroke-width="1" />
    <path d="M480 0 L480 630" stroke="#32a352" stroke-width="1" />
    <path d="M510 0 L510 630" stroke="#32a352" stroke-width="1" />
    <path d="M540 0 L540 630" stroke="#32a352" stroke-width="1" />
    <path d="M570 0 L570 630" stroke="#32a352" stroke-width="1" />
    <path d="M600 0 L600 630" stroke="#32a352" stroke-width="1" />
    <path d="M630 0 L630 630" stroke="#32a352" stroke-width="1" />
    <path d="M660 0 L660 630" stroke="#32a352" stroke-width="1" />
    <path d="M690 0 L690 630" stroke="#32a352" stroke-width="1" />
    <path d="M720 0 L720 630" stroke="#32a352" stroke-width="1" />
    <path d="M750 0 L750 630" stroke="#32a352" stroke-width="1" />
    <path d="M780 0 L780 630" stroke="#32a352" stroke-width="1" />
    <path d="M810 0 L810 630" stroke="#32a352" stroke-width="1" />
    <path d="M840 0 L840 630" stroke="#32a352" stroke-width="1" />
    <path d="M870 0 L870 630" stroke="#32a352" stroke-width="1" />
    <path d="M900 0 L900 630" stroke="#32a352" stroke-width="1" />
    <path d="M930 0 L930 630" stroke="#32a352" stroke-width="1" />
    <path d="M960 0 L960 630" stroke="#32a352" stroke-width="1" />
    <path d="M990 0 L990 630" stroke="#32a352" stroke-width="1" />
    <path d="M1020 0 L1020 630" stroke="#32a352" stroke-width="1" />
    <path d="M1050 0 L1050 630" stroke="#32a352" stroke-width="1" />
    <path d="M1080 0 L1080 630" stroke="#32a352" stroke-width="1" />
    <path d="M1110 0 L1110 630" stroke="#32a352" stroke-width="1" />
    <path d="M1140 0 L1140 630" stroke="#32a352" stroke-width="1" />
    <path d="M1170 0 L1170 630" stroke="#32a352" stroke-width="1" />
  </g>
  
  <!-- GameBoy device shape -->
  <rect x="350" y="150" width="500" height="330" rx="20" ry="20" fill="#32a352" />
  
  <!-- Screen area -->
  <rect x="400" y="180" width="400" height="200" fill="#212121" stroke="#111111" stroke-width="10" />
  <rect x="420" y="200" width="360" height="160" fill="#9BBC0F" />
  
  <!-- Control buttons -->
  <circle cx="450" cy="430" r="30" fill="#A51E23" />
  <circle cx="530" cy="430" r="30" fill="#A51E23" />
  <circle cx="490" cy="390" r="30" fill="#A51E23" />
  <circle cx="490" cy="470" r="30" fill="#A51E23" />
  
  <!-- A and B buttons -->
  <circle cx="700" cy="430" r="25" fill="#111111" />
  <circle cx="770" cy="430" r="25" fill="#111111" />
  <text x="695" y="440" font-family="Arial, sans-serif" font-size="28" font-weight="bold" fill="white" text-anchor="middle">A</text>
  <text x="765" y="440" font-family="Arial, sans-serif" font-size="28" font-weight="bold" fill="white" text-anchor="middle">B</text>
  
  <!-- Start and Select buttons -->
  <rect x="550" cy="430" width="80" height="20" rx="10" ry="10" fill="#111111" transform="rotate(45 550 430)" />
  <rect x="610" cy="430" width="80" height="20" rx="10" ry="10" fill="#111111" transform="rotate(45 610 430)" />
  
  <!-- Logo text on screen -->
  <text x="600" y="250" font-family="Arial, sans-serif" font-size="38" font-weight="bold" fill="#111111" text-anchor="middle">AiGameBoy</text>
  <text x="600" y="290" font-family="Arial, sans-serif" font-size="24" fill="#111111" text-anchor="middle">AI-Powered Retro Gaming</text>
  <text x="600" y="320" font-family="Arial, sans-serif" font-size="18" fill="#111111" text-anchor="middle">Play, Create, Compete</text>
  
  <!-- Website URL -->
  <text x="600" y="550" font-family="Arial, sans-serif" font-size="24" font-weight="bold" fill="white" text-anchor="middle">aigameboy.replit.app</text>
</svg>